<?xml version="1.0" standalone="no"?>
<!DOCTYPE svg PUBLIC "-//W3C//DTD SVG 20010904//EN"
 "http://www.w3.org/TR/2001/REC-SVG-20010904/DTD/svg10.dtd">
<svg version="1.0" xmlns="http://www.w3.org/2000/svg"
 width="16.000000pt" height="16.000000pt" viewBox="0 0 16.000000 16.000000"
 preserveAspectRatio="xMidYMid meet">
<metadata>
Created by potrace 1.11, written by Peter Selinger 2001-2013
</metadata>
<g transform="translate(0.000000,16.000000) scale(0.002286,-0.002286)"
fill="#000000" stroke="none">
<path d="M3259 6990 c-1592 -111 -2906 -1280 -3198 -2845 -42 -224 -54 -369
-54 -640 0 -271 12 -416 54 -640 170 -914 700 -1723 1470 -2248 1195 -814
2780 -804 3964 26 308 216 619 524 843 834 141 196 292 472 391 711 341 830
341 1804 0 2634 -130 315 -296 597 -518 878 -101 127 -401 427 -531 529 -541
428 -1169 684 -1836 751 -152 15 -443 20 -585 10z m1115 -3271 c422 -569 371
-1338 -123 -1836 -271 -274 -610 -414 -998 -414 -355 1 -683 126 -938 359
l-53 49 247 247 248 248 67 -51 c83 -63 139 -92 236 -122 63 -20 95 -24 200
-23 107 1 137 5 205 27 183 60 324 181 411 351 118 229 93 530 -59 731 -17 22
-503 514 -1081 1092 l-1051 1053 250 250 250 250 1066 -1067 c648 -649 1088
-1098 1123 -1144z m-354 1796 c259 -58 467 -165 670 -344 l45 -40 -245 -246
c-135 -135 -248 -245 -253 -245 -4 0 -38 23 -75 52 -86 66 -174 105 -287 129
-107 22 -154 23 -260 4 l-80 -14 -262 261 c-144 144 -260 266 -257 270 8 13
154 84 230 113 82 31 165 53 264 71 104 18 409 12 510 -11z m-320 -2348 c56
-84 81 -158 87 -259 12 -197 -72 -373 -229 -480 l-60 -40 -350 348 c-479 478
-573 585 -661 761 -151 297 -194 664 -116 967 l11 39 639 -639 c367 -366 657
-664 679 -697z m1298 -1280 l312 -312 -250 -250 -250 -250 -285 285 -285 285
83 80 c137 133 248 277 316 413 17 34 35 62 39 62 4 0 148 -141 320 -313z"/>
</g>
</svg>
