<svg xmlns="http://www.w3.org/2000/svg"><symbol viewBox="0 0 249 484" fill-rule="evenodd" clip-rule="evenodd" stroke-linejoin="round" stroke-miterlimit="1.5" id="logo"><g fill="#fff"><path d="M205.121 255.295l43.019 43.048-33.981 33.982-38.902-38.902c.274-.222.547-.445.819-.669 9.108-7.523 16.984-16.536 23.185-26.593a106.804 106.804 0 0 0 5.86-10.866zM47.644 97.781l85.897 85.931a38.07 38.07 0 0 1 3.397 3.902 36.491 36.491 0 0 1 4.921 8.87 36.933 36.933 0 0 1-.417 27.447 36.554 36.554 0 0 1-6.58 10.346 36.92 36.92 0 0 1-10.609 8.141L72.3 190.464v-.001c-24.959-25.148-33.178-60.689-24.656-92.682zm42.921-57.339c37.042-22.573 86.088-17.849 118.108 14.171l-34.028 34.028c-12.962-12.961-31.502-16.977-47.921-12.048L110.158 60.03 90.565 40.442z" fill-opacity=".8"/><path d="M175.908 141.894v.001c37.3 37.582 37.213 98.376-.261 135.85-37.561 37.561-98.551 37.561-136.112 0l34.028-34.028c18.781 18.78 49.276 18.78 68.056 0 18.781-18.781 18.781-49.276 0-68.056L0 33.981 33.981 0l141.927 141.894z"/></g><path d="M7.943 427.162v-3.593c1.062 0 1.885-.006 2.468-.016.584-.01 1.204-.068 1.86-.172.656-.104 1.135-.224 1.437-.359.302-.136.625-.38.969-.735.344-.354.573-.724.688-1.109.114-.385.229-.937.343-1.656.115-.719.183-1.459.203-2.219.021-.76.032-1.745.032-2.953v-40.969h4.75v40.969c0 1.625-.037 2.969-.11 4.031a21.102 21.102 0 0 1-.468 3.188c-.24 1.062-.589 1.901-1.047 2.515-.459.615-1.068 1.177-1.828 1.688-.761.51-1.704.87-2.829 1.078-1.125.208-2.458.312-4 .312H7.943zm23.449-53.781h4.75v53.781h-4.75zm15.511 53.781v-53.781h5.844l10.375 46.438c1.27-6.084 2.958-13.526 5.062-22.328 2.104-8.803 3.875-16.839 5.313-24.11h5.843v53.781h-4.218v-43.031l-9.938 43.031h-4.125l-9.937-43v43h-4.219zm55.999-12.968l4.188-1.219c.166 1.5.463 2.885.89 4.156a14.954 14.954 0 0 0 1.735 3.547 7.674 7.674 0 0 0 2.89 2.578c1.198.625 2.558.938 4.078.938 2.438 0 4.323-.677 5.657-2.032 1.333-1.354 2-3.27 2-5.75 0-2.062-.61-4.052-1.828-5.968-1.219-1.917-3.016-4.125-5.391-6.625l-8.406-8.844c-1.834-1.938-3.24-3.75-4.219-5.438-.979-1.687-1.469-3.458-1.469-5.312 0-3.521 1.156-6.333 3.469-8.438 2.312-2.104 5.281-3.156 8.906-3.156 3.521 0 6.354.995 8.5 2.985 2.146 1.989 3.573 4.88 4.281 8.671l.094.5-4 1.25-.062-.437c-.417-2.688-1.381-4.886-2.891-6.594-1.51-1.708-3.484-2.562-5.922-2.562-2.375 0-4.265.604-5.672 1.812-1.406 1.208-2.109 2.99-2.109 5.344 0 1.417.38 2.812 1.141 4.187.76 1.375 1.849 2.834 3.265 4.375l7.906 8.594c.209.229.73.797 1.563 1.703.833.907 1.38 1.505 1.641 1.797.26.292.739.854 1.437 1.688.698.833 1.177 1.463 1.438 1.89.26.427.63 1.032 1.109 1.813.479.781.807 1.463.984 2.047.177.583.349 1.26.516 2.031.167.771.25 1.531.25 2.281 0 3.833-1.182 6.792-3.547 8.875s-5.422 3.125-9.172 3.125c-1.916 0-3.656-.37-5.219-1.109a11.423 11.423 0 0 1-3.953-3.047 17.077 17.077 0 0 1-2.625-4.375c-.677-1.625-1.161-3.386-1.453-5.281zm38.668-4.188h11.25l-5.657-31.687-5.593 31.687zm-3.313 17.156h-4.781l10.625-53.781h6.187l10.625 53.781h-4.812l-2.688-14h-12.406l-2.75 14zm35.293-17.156h11.25l-5.656-31.687-5.594 31.687zm-3.313 17.156h-4.781l10.625-53.781h6.188l10.625 53.781h-4.813l-2.687-14h-12.407l-2.75 14zM205.28 397.1h9.562c1.354 0 2.5-.271 3.438-.813a5.106 5.106 0 0 0 2.109-2.312c.469-1 .797-2.042.985-3.125.187-1.083.281-2.323.281-3.719a25.05 25.05 0 0 0-.172-3.094 13.288 13.288 0 0 0-.625-2.687c-.302-.875-.703-1.609-1.203-2.203-.5-.594-1.156-1.068-1.969-1.422-.812-.354-1.76-.531-2.844-.531h-9.562V397.1zm-4.75 30.062v-53.781h14.344c1.812 0 3.406.25 4.781.75 1.375.5 2.484 1.162 3.328 1.985.844.822 1.526 1.843 2.047 3.062.521 1.219.88 2.479 1.078 3.781.198 1.302.297 2.745.297 4.328 0 6.855-2.5 11.198-7.5 13.032l8.312 26.843h-5.062l-7.844-26.25h-9.031v26.25h-4.75zm34.917-53.781h4.75v53.781h-4.75z" fill="#fff" fill-rule="nonzero"/><path d="M26.57 445.162h195" fill="none" stroke="#fff" stroke-opacity=".7" stroke-width="4"/><path d="M26.57 356.162h195" fill="none" stroke="#fff" stroke-opacity=".5" stroke-width="4"/><path d="M50.65 472.066c-.019-.238-.062-.417-.128-.536a.9.9 0 0 0-.229-.278 1.069 1.069 0 0 0-.264-.107 2.228 2.228 0 0 0-.492-.036l-.072-.057-.043-.257.029-.057c.066 0 .162.004.285.014.124.009.257.019.4.028l.422.029a5.7 5.7 0 0 0 .364.014h.814a29.977 29.977 0 0 0 1.035-.028 23.6 23.6 0 0 1 1.021-.029c.743 0 1.407.126 1.992.379a4.325 4.325 0 0 1 1.478 1.021c.4.428.707.928.921 1.499.214.571.321 1.176.321 1.814 0 .628-.102 1.225-.307 1.792a4.383 4.383 0 0 1-.906 1.499c-.4.433-.9.778-1.5 1.035-.6.257-1.295.386-2.085.386-.085 0-.214-.002-.385-.007a18.779 18.779 0 0 0-.543-.007c-.19 0-.374-.003-.55-.007a15.933 15.933 0 0 0-.421-.008h-.757a5.7 5.7 0 0 0-.328.015l-.471.028-.472.029a6.486 6.486 0 0 1-.328.014l-.029-.057.043-.257.072-.057c.114 0 .247-.007.399-.022a.766.766 0 0 0 .357-.107.808.808 0 0 0 .215-.271c.066-.124.114-.309.142-.557 0-.067.003-.145.007-.236l.015-.335c.005-.133.007-.295.007-.486v-4.669c0-.219-.002-.433-.007-.643a8.27 8.27 0 0 0-.022-.485zm3.156 7.411c.571 0 1.076-.105 1.514-.314.438-.21.807-.493 1.107-.85.3-.357.528-.778.685-1.264a5.073 5.073 0 0 0 .236-1.57c0-.572-.081-1.1-.243-1.586a3.616 3.616 0 0 0-.707-1.256 3.248 3.248 0 0 0-1.135-.828c-.448-.2-.957-.3-1.528-.3h-1.971c-.019.276-.031.507-.036.692a18.16 18.16 0 0 1-.021.564c-.009.191-.014.398-.014.621v3.478c0 .571.002 1.016.007 1.335.005.319.017.559.036.721.028.248.09.402.185.464s.267.093.514.093h1.371zm12.772-3.156l-.229.1c-.514 0-1.042.005-1.585.014a86.78 86.78 0 0 1-1.599.015H61.48c-.01.066-.014.13-.014.192v.179c0 .362.052.707.157 1.035.104.329.269.617.492.864.224.248.512.445.864.593.352.147.781.221 1.285.221.296 0 .612-.031.95-.093.338-.062.65-.173.935-.335l.143.085v.257l-.143.157c-.228.181-.552.346-.971.493a4.177 4.177 0 0 1-1.399.221 3.67 3.67 0 0 1-1.378-.249 3.132 3.132 0 0 1-1.071-.707 3.238 3.238 0 0 1-.7-1.086 3.763 3.763 0 0 1-.25-1.399c0-.524.086-1 .257-1.428.172-.428.407-.795.707-1.1.3-.304.652-.542 1.057-.714.404-.171.84-.257 1.306-.257.248 0 .526.034.836.1.309.067.607.193.892.379.286.185.543.447.772.785.228.338.385.783.471 1.335l-.1.343zm-2.856-2.299a2.134 2.134 0 0 0-1.921 1.135c-.119.224-.202.46-.25.707h.557a52.12 52.12 0 0 0 3.028-.086c.123-.009.207-.042.249-.1a.321.321 0 0 0 .065-.199.77.77 0 0 0-.057-.3 1.536 1.536 0 0 0-.586-.85c-.286-.205-.647-.307-1.085-.307zm7.788 2.356c.399.086.721.202.963.35.243.148.431.307.565.478.133.172.221.346.264.522.043.176.064.34.064.492 0 .305-.062.586-.186.843a1.886 1.886 0 0 1-.535.664 2.6 2.6 0 0 1-.85.435 3.746 3.746 0 0 1-1.128.157c-.466 0-.902-.054-1.307-.164a4.896 4.896 0 0 1-.963-.35l-.029-.128.214-1.471h.329l.042.057c0 .457.143.816.429 1.078.285.262.7.393 1.242.393.324 0 .595-.038.814-.114.219-.076.393-.176.521-.3a1.145 1.145 0 0 0 .365-.814c0-.086-.005-.183-.015-.293a.743.743 0 0 0-.114-.328 1.156 1.156 0 0 0-.3-.314 1.68 1.68 0 0 0-.571-.25l-1.371-.343a2.65 2.65 0 0 1-.771-.3 1.744 1.744 0 0 1-.471-.407 1.384 1.384 0 0 1-.243-.471 1.826 1.826 0 0 1-.071-.507c0-.314.061-.593.185-.835.124-.243.293-.443.507-.6.214-.157.464-.276.75-.357.285-.081.595-.122.928-.122.447 0 .859.057 1.235.172.376.114.669.228.878.342l.043.129-.157 1.1h-.3l-.057-.043a.847.847 0 0 0-.178-.55 1.364 1.364 0 0 0-.436-.357 1.97 1.97 0 0 0-.542-.193 2.602 2.602 0 0 0-.5-.057c-.476 0-.819.119-1.028.357a1.18 1.18 0 0 0-.315.8c0 .219.074.426.222.621.147.195.435.345.864.45l1.014.228zm6.445 3.842c-.067 0-.167-.005-.3-.015a12.412 12.412 0 0 0-.428-.021l-.429-.014a9.017 9.017 0 0 0-.3-.008h-.199c-.067 0-.169.003-.307.008l-.429.014c-.147.005-.29.012-.428.021-.138.01-.241.015-.307.015l-.015-.058.015-.2.057-.057c.152 0 .302-.007.45-.021a.53.53 0 0 0 .335-.136.47.47 0 0 0 .15-.257c.024-.104.045-.252.064-.442l.029-.465c.01-.157.014-.407.014-.749v-2.264c0-.138-.002-.259-.007-.364l-.014-.285a5.826 5.826 0 0 0-.022-.272 1.134 1.134 0 0 0-.085-.278.624.624 0 0 0-.1-.164.567.567 0 0 0-.357-.207 2.676 2.676 0 0 0-.443-.036l-.057-.057v-.2l.057-.043h.257c.162 0 .367-.002.614-.007.248-.005.462-.022.643-.05l.5-.072.085.129a.772.772 0 0 0-.05.2 3.066 3.066 0 0 0-.028.307l-.015.321a7.364 7.364 0 0 0-.007.243c0 .076-.002.15-.007.221a3.68 3.68 0 0 0-.007.25c0 .095-.002.21-.007.343-.005.133-.007.305-.007.514v1.599c0 .21.002.381.007.514.005.134.009.248.014.343l.014.264c.005.081.012.169.022.265.019.199.04.349.064.449.024.1.074.184.15.25.076.067.183.11.321.129.138.019.279.028.422.028l.071.072.029.185-.029.058zm-2.399-9.068c0-.191.064-.355.193-.493a.626.626 0 0 1 .478-.207c.191 0 .355.069.493.207a.673.673 0 0 1 .207.493c0 .19-.069.35-.207.478a.696.696 0 0 1-.493.193.647.647 0 0 1-.478-.193.647.647 0 0 1-.193-.478zm5.332 7.068c-.514-.19-.886-.49-1.114-.899a2.734 2.734 0 0 1-.343-1.357c0-.352.062-.685.186-1 .123-.314.302-.587.535-.821.233-.233.514-.416.843-.549.328-.134.702-.2 1.121-.2.247 0 .492.023.735.071.243.048.455.114.636.2.399-.01.773-.033 1.121-.071.347-.039.673-.1.978-.186l.071.057-.1.785-.071.072-1.3-.057-.014.043c.248.199.428.461.543.785.114.324.171.638.171.942 0 .315-.059.614-.178.9a2.143 2.143 0 0 1-.522.75 2.547 2.547 0 0 1-.856.514 3.379 3.379 0 0 1-1.186.193c-.076 0-.171-.003-.285-.007a6.91 6.91 0 0 0-.286-.008.805.805 0 0 0-.364.272c-.081.114-.121.209-.121.285 0 .096.064.179.192.25.129.072.336.122.622.15l1.385.143c.314.038.607.105.878.2.271.095.509.221.714.378.205.157.364.348.478.571.115.224.172.484.172.779a2.156 2.156 0 0 1-.743 1.585c-.247.209-.59.381-1.028.514a5.22 5.22 0 0 1-1.514.2c-.514 0-.959-.055-1.335-.164a2.985 2.985 0 0 1-.942-.443 1.888 1.888 0 0 1-.565-.628 1.533 1.533 0 0 1-.185-.722c0-.399.131-.754.393-1.063.261-.31.597-.526 1.006-.65l.015-.043a1.448 1.448 0 0 1-.5-.321.663.663 0 0 1-.186-.479c0-.247.1-.447.3-.599.2-.153.414-.257.643-.315v-.057zm1.285-.428c.266 0 .502-.048.707-.143.204-.095.378-.224.521-.385.143-.162.252-.35.328-.565.077-.214.115-.435.115-.664 0-.238-.038-.476-.115-.714a2.069 2.069 0 0 0-.335-.642 1.805 1.805 0 0 0-.55-.471 1.509 1.509 0 0 0-.757-.186c-.276 0-.516.057-.721.171a1.655 1.655 0 0 0-.514.443c-.138.181-.24.383-.307.607a2.228 2.228 0 0 0 .007 1.342c.071.224.181.426.328.607.148.181.329.326.543.436.214.109.464.164.75.164zm-.457 2.442c-.267.009-.5.057-.7.143-.2.085-.369.192-.507.321-.138.128-.24.271-.307.428-.066.157-.1.312-.1.464 0 .362.2.657.6.886.4.228.942.342 1.628.342.314 0 .604-.026.871-.078.267-.052.497-.133.693-.243.195-.109.349-.243.464-.4a.91.91 0 0 0 .171-.549c0-.229-.055-.415-.164-.557a1.24 1.24 0 0 0-.429-.35 2.209 2.209 0 0 0-.599-.2 10.762 10.762 0 0 0-.664-.107l-.957-.1zm7.216-5.412a3.42 3.42 0 0 1 .957-1.029c.391-.276.876-.414 1.457-.414.266 0 .533.038.799.115.267.076.512.195.736.357.224.161.409.369.557.621.147.252.245.55.293.892.028.248.045.51.05.786.004.276.007.552.007.828 0 .343.002.688.007 1.035.005.348.007.693.007 1.036.019.219.043.378.071.478.029.1.072.174.129.221a.598.598 0 0 0 .35.136c.147.014.297.021.45.021l.042.057.029.2-.029.058a6.997 6.997 0 0 0-.542-.043 11.728 11.728 0 0 0-1.571.028l-.1-.143a2.49 2.49 0 0 0 .086-.485c.019-.2.033-.376.043-.528a48.857 48.857 0 0 0 .057-2.142c0-.219-.007-.457-.022-.714a3.57 3.57 0 0 0-.093-.672c-.095-.447-.29-.78-.585-.999a1.679 1.679 0 0 0-1.028-.329c-.314 0-.607.067-.878.2a2.496 2.496 0 0 0-.693.493c-.19.195-.34.4-.45.614-.109.214-.164.397-.164.55v2.127c0 .134.002.248.007.343.005.095.012.183.021.264.01.081.02.169.029.265.019.199.04.349.064.449.024.1.074.184.15.25.076.067.183.11.322.129.138.019.278.028.421.028l.071.072.029.185-.029.058a4.43 4.43 0 0 1-.3-.015 12.412 12.412 0 0 0-.428-.021l-.428-.014a9.152 9.152 0 0 0-.3-.008h-.2c-.067 0-.169.003-.307.008l-.429.014c-.147.005-.29.012-.428.021-.138.01-.241.015-.307.015l-.014-.058.014-.2.057-.057c.152 0 .302-.007.45-.021a.53.53 0 0 0 .335-.136.458.458 0 0 0 .15-.257c.024-.104.046-.252.065-.442l.028-.465c.01-.157.014-.407.014-.749v-2.264a13.67 13.67 0 0 0-.042-.921 1.134 1.134 0 0 0-.086-.278.598.598 0 0 0-.1-.164.567.567 0 0 0-.357-.207 2.667 2.667 0 0 0-.443-.036l-.057-.057v-.2l.057-.043h.257c.162 0 .367-.002.614-.007.248-.005.462-.022.643-.05l.5-.072.085.129c-.047.124-.08.293-.1.507-.019.214-.033.421-.042.621l.042.029zm13.443 1.499l-.228.1c-.514 0-1.043.005-1.585.014-.543.01-1.076.015-1.6.015h-1.685c-.009.066-.014.13-.014.192v.179c0 .362.052.707.157 1.035.105.329.269.617.493.864.223.248.511.445.864.593.352.147.78.221 1.285.221.295 0 .611-.031.949-.093a2.97 2.97 0 0 0 .936-.335l.143.085v.257l-.143.157c-.229.181-.552.346-.971.493a4.183 4.183 0 0 1-1.4.221c-.504 0-.964-.083-1.378-.249a3.132 3.132 0 0 1-1.071-.707 3.22 3.22 0 0 1-.699-1.086 3.743 3.743 0 0 1-.25-1.399c0-.524.085-1 .257-1.428.171-.428.407-.795.707-1.1a3.252 3.252 0 0 1 1.056-.714c.405-.171.84-.257 1.307-.257.247 0 .526.034.835.1.31.067.607.193.893.379.285.185.542.447.771.785.228.338.385.783.471 1.335l-.1.343zm-2.856-2.299a2.141 2.141 0 0 0-1.921 1.135c-.119.224-.202.46-.249.707h.557a52.05 52.05 0 0 0 3.027-.086c.124-.009.207-.042.25-.1a.32.32 0 0 0 .064-.199.852.852 0 0 0-.014-.158.853.853 0 0 0-.043-.142 1.536 1.536 0 0 0-.586-.85c-.285-.205-.647-.307-1.085-.307zm6.46 1.085c.095-.181.202-.371.321-.571.119-.2.255-.386.407-.557.153-.171.326-.314.521-.428.196-.115.417-.172.664-.172.172 0 .365.027.579.079.214.052.359.121.435.207l.115.128-.172 1.1h-.471a.692.692 0 0 0-.221-.364c-.119-.11-.303-.164-.55-.164-.238 0-.457.069-.657.207a2.08 2.08 0 0 0-.521.521 2.652 2.652 0 0 0-.343.664 1.952 1.952 0 0 0-.121.635v1.271c0 .21.002.379.007.507.005.129.009.238.014.329l.014.228c.005.062.007.126.007.193l.015.129c.019.142.04.278.064.407a.493.493 0 0 0 .15.292.499.499 0 0 0 .207.086c.09.019.186.033.286.043a7.867 7.867 0 0 0 .521.028l.071.072.029.185-.029.058c-.066 0-.174-.005-.321-.015a15.529 15.529 0 0 0-.464-.021l-.464-.014a11.167 11.167 0 0 0-.322-.008h-.342c-.067 0-.169.003-.307.008l-.436.014a13.53 13.53 0 0 0-.435.021c-.138.01-.241.015-.307.015l-.015-.058.015-.2.057-.057c.152 0 .302-.007.45-.021a.53.53 0 0 0 .335-.136.47.47 0 0 0 .15-.257c.024-.104.045-.252.064-.442l.015-.129c.009-.095.016-.214.021-.357.005-.143.007-.386.007-.728v-2.264c0-.138-.002-.259-.007-.364l-.014-.285a5.826 5.826 0 0 0-.022-.272 1.134 1.134 0 0 0-.085-.278.624.624 0 0 0-.1-.164.572.572 0 0 0-.357-.207 2.676 2.676 0 0 0-.443-.036l-.057-.057v-.2l.057-.043h.257c.162 0 .367-.002.614-.007.248-.005.462-.022.643-.05l.499-.072.086.129a3.8 3.8 0 0 0-.121.685 8.002 8.002 0 0 0-.036.743l.043.014zm17.681-.999a.902.902 0 0 1-.071.221 1.553 1.553 0 0 1-.614.721 1.08 1.08 0 0 1-.6.157 9.4 9.4 0 0 1-.578-.028l-.807-.057c.143.218.25.468.321.749.072.281.108.574.108.878 0 .334-.043.667-.129 1a3.027 3.027 0 0 1-.414.928c.362.362.723.648 1.085.857.362.21.8.324 1.314.343l.086.057.042.257-.042.057a14.183 14.183 0 0 0-.814.029c-.153.009-.291.016-.414.021a7.279 7.279 0 0 1-.272.007 1.52 1.52 0 0 1-.842-.271 4.952 4.952 0 0 1-.786-.643 3.947 3.947 0 0 1-1.242.679 4.583 4.583 0 0 1-1.471.235c-.419 0-.823-.055-1.214-.164a3.298 3.298 0 0 1-1.042-.493 2.467 2.467 0 0 1-.728-.814 2.27 2.27 0 0 1-.272-1.128 3.15 3.15 0 0 1 .5-1.663c.162-.253.359-.481.593-.686.233-.205.497-.364.792-.478-.304-.4-.523-.75-.657-1.05-.133-.3-.2-.631-.2-.992 0-.676.205-1.202.614-1.578.41-.376.933-.564 1.571-.564.2 0 .402.019.607.057.205.038.395.102.571.193.176.09.326.207.45.349.124.143.21.319.257.529l.043.143-.171 1.014h-.472l-.057-.058c-.047-.561-.178-.952-.392-1.171-.215-.219-.503-.328-.864-.328-.419 0-.719.121-.9.364a1.36 1.36 0 0 0-.271.836c0 .361.076.709.228 1.042.076.171.193.366.35.585.157.219.378.498.664.836.286.338.65.745 1.092 1.221.443.476.988 1.056 1.636 1.742.238-.448.357-.895.357-1.342 0-.276-.046-.548-.136-.814a3.953 3.953 0 0 0-.393-.814c-.219.009-.376.045-.471.107a.98.98 0 0 0-.257.25l-.2-.1c0-.067.029-.162.086-.286.057-.124.142-.245.257-.364.114-.119.254-.221.421-.307.167-.086.364-.129.593-.129.085 0 .204.008.357.022a18.946 18.946 0 0 0 1.67.093c.181 0 .353-.019.514-.057.162-.039.305-.143.429-.315l.185.115zm-3.998 4.684c-.485-.534-.976-1.062-1.471-1.586a45.804 45.804 0 0 1-1.513-1.685 1.71 1.71 0 0 0-.615.343 2.138 2.138 0 0 0-.428.521c-.114.195-.2.4-.257.614a2.373 2.373 0 0 0-.086.607c0 .333.072.621.215.864.142.243.326.443.549.6.224.157.476.276.757.357a3.008 3.008 0 0 0 1.907-.071 2.89 2.89 0 0 0 .942-.564zm11.027-6.726c-.019-.238-.062-.417-.128-.536a.9.9 0 0 0-.229-.278 1.1 1.1 0 0 0-.264-.107 2.238 2.238 0 0 0-.493-.036l-.071-.057-.043-.257.029-.057c.066 0 .161.004.285.014.124.009.257.019.4.028l.421.029c.138.009.26.014.364.014h.814a29.977 29.977 0 0 0 1.036-.028 23.405 23.405 0 0 1 1.021-.029c.742 0 1.406.126 1.992.379a4.334 4.334 0 0 1 1.478 1.021c.4.428.707.928.921 1.499.214.571.321 1.176.321 1.814 0 .628-.102 1.225-.307 1.792a4.385 4.385 0 0 1-.907 1.499 4.316 4.316 0 0 1-1.499 1.035c-.6.257-1.295.386-2.085.386-.086 0-.214-.002-.385-.007a18.779 18.779 0 0 0-.543-.007c-.191 0-.374-.003-.55-.007a15.933 15.933 0 0 0-.421-.008h-.757c-.067 0-.176.005-.328.015l-.472.028-.471.029a6.486 6.486 0 0 1-.328.014l-.029-.057.043-.257.071-.057c.115 0 .248-.007.4-.022a.773.773 0 0 0 .357-.107.806.806 0 0 0 .214-.271c.067-.124.115-.309.143-.557 0-.067.003-.145.007-.236l.015-.335c.004-.133.007-.295.007-.486v-4.669c0-.219-.003-.433-.007-.643a8.27 8.27 0 0 0-.022-.485zm3.156 7.411c.571 0 1.076-.105 1.514-.314a3.26 3.26 0 0 0 1.106-.85c.3-.357.529-.778.686-1.264a5.073 5.073 0 0 0 .235-1.57c0-.572-.08-1.1-.242-1.586a3.616 3.616 0 0 0-.707-1.256 3.258 3.258 0 0 0-1.135-.828c-.448-.2-.957-.3-1.528-.3h-1.971c-.019.276-.031.507-.036.692-.004.186-.012.374-.021.564-.01.191-.014.398-.014.621v3.478c0 .571.002 1.016.007 1.335.004.319.016.559.035.721.029.248.091.402.186.464s.267.093.514.093h1.371zm12.772-3.156l-.229.1c-.514 0-1.042.005-1.585.014-.543.01-1.076.015-1.599.015h-1.685c-.01.066-.015.13-.015.192v.179c0 .362.053.707.157 1.035.105.329.269.617.493.864.224.248.512.445.864.593.352.147.781.221 1.285.221.295 0 .612-.031.95-.093.338-.062.65-.173.935-.335l.143.085v.257l-.143.157c-.228.181-.552.346-.971.493a4.177 4.177 0 0 1-1.399.221 3.67 3.67 0 0 1-1.378-.249 3.132 3.132 0 0 1-1.071-.707 3.238 3.238 0 0 1-.7-1.086 3.743 3.743 0 0 1-.25-1.399c0-.524.086-1 .257-1.428.171-.428.407-.795.707-1.1.3-.304.652-.542 1.057-.714.404-.171.84-.257 1.306-.257.248 0 .526.034.836.1.309.067.607.193.892.379.286.185.543.447.771.785.229.338.386.783.472 1.335l-.1.343zm-2.856-2.299a2.143 2.143 0 0 0-1.464.55 2.106 2.106 0 0 0-.457.585c-.119.224-.202.46-.25.707h.557a51.998 51.998 0 0 0 3.027-.086c.124-.009.207-.042.25-.1a.32.32 0 0 0 .064-.199.774.774 0 0 0-.057-.3 1.535 1.535 0 0 0-.585-.85c-.286-.205-.648-.307-1.085-.307zm7.102 6.212l-.143-.072-.857-2.284a10.63 10.63 0 0 0-.178-.472c-.091-.228-.193-.48-.307-.757a72.056 72.056 0 0 1-.35-.863 50.93 50.93 0 0 0-.321-.793 5.365 5.365 0 0 0-.257-.543 1.265 1.265 0 0 0-.322-.357.969.969 0 0 0-.478-.157l-.086-.071v-.2l.057-.057c.162.019.334.038.514.057.181.019.348.029.5.029h.557c.152 0 .336-.01.55-.029.214-.019.416-.038.607-.057l.057.057v.171l-.057.057c-.21.019-.383.074-.521.165a.44.44 0 0 0-.207.392c0 .115.045.317.135.607a38.648 38.648 0 0 0 .85 2.406l.7 1.857.685-1.642.271-.657c.115-.276.229-.571.343-.886.114-.314.212-.621.293-.921.081-.3.121-.554.121-.764 0-.209-.076-.349-.228-.421a1.587 1.587 0 0 0-.514-.136l-.057-.057v-.171l.057-.057c.371.057.718.086 1.042.086h.586c.161 0 .321-.01.478-.029.157-.019.326-.038.507-.057l.057.057v.2l-.086.071a.988.988 0 0 0-.421.143c-.119.076-.231.2-.335.371a9.632 9.632 0 0 0-.293.572c-.11.228-.219.476-.329.742a76.319 76.319 0 0 0-.628 1.585c-.09.238-.167.445-.228.621a7.348 7.348 0 0 1-.136.365l-.728 1.827-.9.072zm11.258-3.913l-.229.1c-.514 0-1.042.005-1.585.014a86.78 86.78 0 0 1-1.599.015h-1.685c-.01.066-.014.13-.014.192v.179c0 .362.052.707.157 1.035.104.329.269.617.492.864.224.248.512.445.864.593.352.147.781.221 1.285.221.296 0 .612-.031.95-.093.338-.062.65-.173.935-.335l.143.085v.257l-.143.157c-.228.181-.552.346-.971.493a4.177 4.177 0 0 1-1.399.221 3.67 3.67 0 0 1-1.378-.249 3.132 3.132 0 0 1-1.071-.707 3.238 3.238 0 0 1-.7-1.086 3.763 3.763 0 0 1-.25-1.399c0-.524.086-1 .257-1.428.172-.428.407-.795.707-1.1.3-.304.652-.542 1.057-.714.404-.171.84-.257 1.306-.257.248 0 .526.034.836.1.309.067.607.193.892.379.286.185.543.447.771.785.229.338.386.783.472 1.335l-.1.343zm-2.856-2.299a2.134 2.134 0 0 0-1.921 1.135c-.119.224-.202.46-.25.707h.557a52.12 52.12 0 0 0 3.027-.086c.124-.009.208-.042.25-.1a.321.321 0 0 0 .065-.199.77.77 0 0 0-.057-.3 1.536 1.536 0 0 0-.586-.85c-.286-.205-.647-.307-1.085-.307zm4.303-4.241l.057-.057h.257c.162 0 .367-.003.614-.007.248-.005.462-.022.643-.05l.514-.072.086.129a.64.64 0 0 0-.043.207l-.029.321a10.734 10.734 0 0 0-.028.571c-.01.153-.017.295-.022.429l-.014.471c-.005.181-.007.4-.007.657v4.098c0 .4.002.728.007.985l.014.657.015.472c.004.133.012.285.021.457.019.199.041.349.064.449.024.1.074.184.15.25.076.067.184.11.322.129.138.019.278.028.421.028l.071.072.029.185-.029.058a4.43 4.43 0 0 1-.3-.015 12.412 12.412 0 0 0-.428-.021l-.428-.014a9.152 9.152 0 0 0-.3-.008h-.2c-.067 0-.169.003-.307.008l-.429.014c-.147.005-.29.012-.428.021-.138.01-.24.015-.307.015l-.014-.058.014-.2.057-.057c.152 0 .302-.007.45-.021a.53.53 0 0 0 .335-.136.458.458 0 0 0 .15-.257c.024-.104.046-.252.065-.442.009-.124.016-.248.021-.372a26.355 26.355 0 0 0 .022-1.021v-5.255a40.742 40.742 0 0 0-.022-1.235 17.46 17.46 0 0 0-.021-.457.673.673 0 0 0-.079-.271 1.637 1.637 0 0 0-.107-.172.645.645 0 0 0-.357-.2 2.295 2.295 0 0 0-.443-.042l-.057-.058v-.185zm8.074 3.598c.561 0 1.061.098 1.499.293a3.283 3.283 0 0 1 1.792 1.921 3.855 3.855 0 0 1 .022 2.599 3.026 3.026 0 0 1-.657 1.085 3.29 3.29 0 0 1-1.1.757c-.438.19-.947.285-1.528.285-.6 0-1.123-.099-1.571-.299a3.229 3.229 0 0 1-1.106-.786 3.186 3.186 0 0 1-.65-1.107 3.887 3.887 0 0 1-.214-1.278c0-.466.081-.909.242-1.328.162-.419.393-.787.693-1.106.3-.319.666-.572 1.1-.757.433-.186.925-.279 1.478-.279zm.014 6.384c.4 0 .752-.081 1.057-.243.304-.162.557-.376.756-.643.2-.266.35-.569.45-.907.1-.338.15-.687.15-1.049 0-.343-.054-.69-.164-1.043a3.126 3.126 0 0 0-.478-.949 2.546 2.546 0 0 0-.771-.686 2.076 2.076 0 0 0-1.057-.264c-.419 0-.778.083-1.078.25-.3.167-.548.383-.743.65a2.79 2.79 0 0 0-.435.914 3.789 3.789 0 0 0-.143 1.028c0 .352.054.702.164 1.049.109.348.269.662.478.943.21.281.467.509.771.685a2.05 2.05 0 0 0 1.043.265zm6.988-5.084c.276-.39.612-.705 1.007-.943a2.51 2.51 0 0 1 1.321-.357c.542 0 1.011.096 1.406.286.395.19.721.443.978.757s.448.673.572 1.078c.123.405.185.826.185 1.264 0 .647-.1 1.197-.3 1.649-.2.452-.454.819-.764 1.1-.309.28-.647.485-1.013.614a3.188 3.188 0 0 1-1.05.192c-.457 0-.895-.107-1.314-.321-.419-.214-.776-.564-1.071-1.049l-.043.028c.01.133.019.291.029.471.009.181.014.443.014.786v.949a26.682 26.682 0 0 0 .022 1.086c.004.138.016.288.035.45.019.19.041.337.065.442a.395.395 0 0 0 .15.243.544.544 0 0 0 .321.143c.138.019.278.028.421.028l.071.057.029.2-.029.043c-.066 0-.166-.002-.299-.007l-.429-.014-.428-.014a9.017 9.017 0 0 0-.3-.008h-.2c-.067 0-.169.003-.307.008l-.428.014-.429.014a9.02 9.02 0 0 1-.307.007l-.014-.043.014-.214.057-.043c.153 0 .3-.009.443-.028a.63.63 0 0 0 .343-.143.472.472 0 0 0 .15-.25c.023-.1.045-.245.064-.435a9.47 9.47 0 0 0 .021-.365l.015-.421c.004-.162.007-.352.007-.571v-5.084a31.766 31.766 0 0 0-.043-1.628.738.738 0 0 0-.079-.278.716.716 0 0 0-.107-.164.567.567 0 0 0-.357-.207 2.663 2.663 0 0 0-.442-.036l-.058-.057v-.2l.058-.043h.257c.161 0 .366-.002.614-.007.247-.005.461-.022.642-.05l.5-.072.086.129a.69.69 0 0 0-.05.178 6.376 6.376 0 0 0-.043.272c-.014.1-.024.2-.029.3-.004.1-.007.183-.007.25l.043.014zm4.384 2.113c0-.323-.043-.642-.129-.956a2.536 2.536 0 0 0-.392-.836 2.01 2.01 0 0 0-.664-.585 1.914 1.914 0 0 0-.943-.222c-.361 0-.68.067-.956.2a2.57 2.57 0 0 0-1.164 1.1c-.11.209-.169.39-.179.542v1.571c.029.153.091.338.186.557.095.219.235.431.421.636.186.204.417.378.693.521.276.143.599.214.971.214.371 0 .692-.078.964-.236.271-.157.495-.364.671-.621a2.77 2.77 0 0 0 .392-.878c.086-.328.129-.664.129-1.007zm9.044-.471l-.228.1c-.514 0-1.042.005-1.585.014-.543.01-1.076.015-1.599.015h-1.686c-.009.066-.014.13-.014.192v.179c0 .362.053.707.157 1.035.105.329.269.617.493.864.224.248.512.445.864.593.352.147.781.221 1.285.221.295 0 .612-.031.95-.093.338-.062.649-.173.935-.335l.143.085v.257l-.143.157c-.228.181-.552.346-.971.493a4.177 4.177 0 0 1-1.399.221 3.67 3.67 0 0 1-1.378-.249 3.113 3.113 0 0 1-1.771-1.793 3.743 3.743 0 0 1-.25-1.399c0-.524.086-1 .257-1.428.171-.428.407-.795.707-1.1.3-.304.652-.542 1.057-.714.404-.171.84-.257 1.306-.257.248 0 .526.034.836.1.309.067.606.193.892.379.286.185.543.447.771.785.229.338.386.783.471 1.335l-.1.343zm-2.856-2.299a2.141 2.141 0 0 0-1.463.55 2.106 2.106 0 0 0-.457.585c-.119.224-.203.46-.25.707h.557a51.998 51.998 0 0 0 3.027-.086c.124-.009.207-.042.25-.1a.32.32 0 0 0 .064-.199.774.774 0 0 0-.057-.3 1.54 1.54 0 0 0-.585-.85c-.286-.205-.648-.307-1.086-.307zm6.46 1.085c.095-.181.202-.371.321-.571.119-.2.255-.386.407-.557.153-.171.327-.314.522-.428.195-.115.416-.172.664-.172.171 0 .364.027.578.079.214.052.359.121.436.207l.114.128-.172 1.1h-.471a.685.685 0 0 0-.221-.364c-.119-.11-.302-.164-.55-.164-.238 0-.457.069-.657.207-.2.138-.373.312-.521.521a2.652 2.652 0 0 0-.343.664 1.952 1.952 0 0 0-.121.635v1.271c0 .21.002.379.007.507l.014.329.015.228c.004.062.007.126.007.193l.014.129c.019.142.04.278.064.407a.493.493 0 0 0 .15.292.499.499 0 0 0 .207.086c.091.019.186.033.286.043a7.766 7.766 0 0 0 .521.028l.072.072.028.185-.028.058a5.37 5.37 0 0 1-.322-.015 15.377 15.377 0 0 0-.464-.021l-.464-.014a11.202 11.202 0 0 0-.321-.008h-.343c-.067 0-.169.003-.307.008l-.436.014a13.53 13.53 0 0 0-.435.021c-.138.01-.241.015-.307.015l-.014-.058.014-.2.057-.057c.152 0 .302-.007.45-.021a.53.53 0 0 0 .335-.136.458.458 0 0 0 .15-.257c.024-.104.046-.252.065-.442l.014-.129c.009-.095.017-.214.021-.357.005-.143.007-.386.007-.728v-2.264a13.67 13.67 0 0 0-.042-.921 1.134 1.134 0 0 0-.086-.278.598.598 0 0 0-.1-.164.567.567 0 0 0-.357-.207 2.667 2.667 0 0 0-.443-.036l-.057-.057v-.2l.057-.043h.257c.162 0 .367-.002.614-.007.248-.005.462-.022.643-.05l.5-.072.085.129a3.8 3.8 0 0 0-.121.685 8.002 8.002 0 0 0-.036.743l.043.014z" fill="#fff" fill-rule="nonzero"/></symbol><symbol viewBox="0 0 106 106" fill-rule="evenodd" clip-rule="evenodd" stroke-linejoin="round" stroke-miterlimit="1.414" id="menu--about"><path d="M0 0h106v106H0V0zm64.479 67h-3v13.5c0 .961.058 1.822.175 2.584.117.762.317 1.471.598 2.127.281.656.646 1.201 1.096 1.635.449.433 1.021.771 1.716 1.013.696.243 1.5.364 2.415.364.914 0 1.718-.121 2.414-.364.695-.242 1.267-.58 1.716-1.013.45-.434.815-.979 1.096-1.635a8.754 8.754 0 0 0 .598-2.127c.117-.762.176-1.623.176-2.584V67h-3v13.5c0 .648-.014 1.191-.041 1.629a8.48 8.48 0 0 1-.217 1.4c-.117.496-.28.893-.487 1.19-.207.297-.5.543-.879.738-.378.195-.837.293-1.376.293-.54 0-.999-.098-1.377-.293a2.358 2.358 0 0 1-.879-.738c-.207-.297-.369-.694-.487-1.19a8.369 8.369 0 0 1-.216-1.4 26.36 26.36 0 0 1-.041-1.629V67zm-11.25 21.211c-1.055 0-1.959-.16-2.713-.481-.754-.32-1.354-.789-1.799-1.406-.446-.617-.77-1.342-.973-2.174-.203-.832-.305-1.798-.305-2.9v-7.617c0-1.102.102-2.063.305-2.883.203-.82.527-1.533.973-2.139.445-.605 1.045-1.06 1.799-1.365.754-.305 1.658-.457 2.713-.457 2.046 0 3.523.586 4.429 1.758.906 1.172 1.36 2.867 1.36 5.086v7.617c0 1.086-.104 2.045-.311 2.877-.207.832-.533 1.559-.978 2.18-.446.621-1.045 1.093-1.799 1.418-.754.324-1.655.486-2.701.486zM32.697 88l-4.5-21h-3l-4.5 21h3l1.125-5.25h3.75L29.697 88h3zm6.188-21h-4.5v21h5.25c1.851 0 3.314-.537 4.388-1.611 1.075-1.075 1.612-2.537 1.612-4.389 0-1.484-.313-2.627-.938-3.428-.625-.801-1.562-1.408-2.812-1.822 1.156-.32 2.011-.822 2.566-1.506.555-.683.832-1.682.832-2.994 0-.906-.154-1.699-.463-2.379a4.038 4.038 0 0 0-1.324-1.641 6.047 6.047 0 0 0-2.01-.925c-.765-.203-1.632-.305-2.601-.305zm46.418 2.672V67h-10.5v2.672h3.75V88h3V69.672h3.75zM38.885 78.25c1.297 0 2.246.299 2.847.896.602.598.903 1.549.903 2.854 0 1.305-.301 2.256-.903 2.854-.601.597-1.55.896-2.847.896h-1.5v-7.5h1.5zm14.344 7.5c1.054 0 1.783-.316 2.185-.949.402-.633.604-1.567.604-2.801v-9.117c0-1.219-.2-2.129-.598-2.731-.399-.601-1.129-.902-2.191-.902-1.063 0-1.793.301-2.192.902-.398.602-.598 1.512-.598 2.731V82c0 1.234.202 2.168.604 2.801.402.633 1.131.949 2.186.949zM28.197 80.5h-3l1.5-9 1.5 9zM38.885 76h-1.5v-6.75c.531 0 .941.004 1.23.012.289.008.651.029 1.084.064.434.035.768.092 1.002.17.235.078.494.19.779.334.286.145.499.322.639.533.141.211.262.475.363.791.102.317.153.682.153 1.096 0 2.5-1.25 3.75-3.75 3.75zM53 42.039c-5.674 0-17 2.848-17 8.5v4.25h34v-4.25c0-5.652-11.326-8.5-17-8.5zm0-4.25c4.696 0 8.5-3.804 8.5-8.5s-3.804-8.5-8.5-8.5a8.498 8.498 0 0 0-8.5 8.5c0 4.696 3.804 8.5 8.5 8.5z"/></symbol><symbol viewBox="0 0 106 106" fill-rule="evenodd" clip-rule="evenodd" stroke-linejoin="round" stroke-miterlimit="1.414" id="menu--contact"><path d="M0 0h106v106H0V0zm21.816 73.75c0-.313-.004-.543-.011-.691-.039-.993-.166-1.86-.381-2.602a5.953 5.953 0 0 0-.961-1.957c-.426-.563-.994-.988-1.705-1.277-.711-.289-1.555-.434-2.531-.434-.883 0-1.661.125-2.332.375-.672.25-1.223.594-1.653 1.031-.43.438-.779.987-1.049 1.647a9.019 9.019 0 0 0-.568 2.115 17.81 17.81 0 0 0-.164 2.543v5.988c0 .946.055 1.793.164 2.543.109.75.299 1.455.568 2.115.27.661.619 1.211 1.049 1.653.43.441.981.787 1.653 1.037.671.25 1.449.375 2.332.375 1.031 0 1.912-.164 2.642-.492a4.045 4.045 0 0 0 1.735-1.436 6.455 6.455 0 0 0 .925-2.174c.192-.82.287-1.773.287-2.859v-.75h-3v.75c0 .516-.015.969-.046 1.359-.032.391-.1.793-.206 1.207-.105.414-.25.754-.433 1.02a2.114 2.114 0 0 1-.756.656c-.32.172-.703.258-1.148.258-.446 0-.834-.084-1.166-.252a2.188 2.188 0 0 1-.797-.662 3.417 3.417 0 0 1-.487-1.014 6.308 6.308 0 0 1-.252-1.213 13 13 0 0 1-.064-1.359v-7.5c0-.578.016-1.064.047-1.459s.099-.799.205-1.213c.105-.414.256-.744.451-.99s.467-.447.815-.604c.347-.156.763-.234 1.248-.234.375 0 .703.041.984.123.281.082.514.211.697.387.184.176.336.367.457.574.121.207.213.467.276.779.062.313.105.616.129.908.023.293.039.647.046 1.061v.668h3zm7.407 14.461c-1.055 0-1.959-.16-2.713-.481-.754-.32-1.354-.789-1.799-1.406-.445-.617-.77-1.342-.973-2.174-.203-.832-.304-1.798-.304-2.9v-7.617c0-1.102.101-2.063.304-2.883.203-.82.528-1.533.973-2.139.445-.605 1.045-1.06 1.799-1.365.754-.305 1.658-.457 2.713-.457 2.047 0 3.523.586 4.429 1.758.907 1.172 1.36 2.867 1.36 5.086v7.617c0 1.086-.104 2.045-.311 2.877-.207.832-.533 1.559-.978 2.18-.446.621-1.045 1.093-1.799 1.418-.754.324-1.654.486-2.701.486zM84.559 73.75c0-.313-.004-.543-.012-.691-.039-.993-.166-1.86-.381-2.602a5.943 5.943 0 0 0-.961-1.957c-.426-.563-.994-.988-1.705-1.277-.711-.289-1.555-.434-2.531-.434-.883 0-1.66.125-2.332.375-.672.25-1.223.594-1.653 1.031-.429.438-.779.987-1.048 1.647a9.02 9.02 0 0 0-.569 2.115 17.81 17.81 0 0 0-.164 2.543v5.988c0 .946.055 1.793.164 2.543.11.75.299 1.455.569 2.115.269.661.619 1.211 1.048 1.653.43.441.981.787 1.653 1.037.672.25 1.449.375 2.332.375 1.031 0 1.912-.164 2.642-.492a4.045 4.045 0 0 0 1.735-1.436 6.455 6.455 0 0 0 .925-2.174c.192-.82.288-1.773.288-2.859v-.75h-3v.75c0 .516-.016.969-.047 1.359-.032.391-.1.793-.205 1.207-.106.414-.25.754-.434 1.02a2.105 2.105 0 0 1-.756.656c-.32.172-.703.258-1.148.258-.446 0-.834-.084-1.166-.252a2.188 2.188 0 0 1-.797-.662 3.453 3.453 0 0 1-.486-1.014 6.308 6.308 0 0 1-.252-1.213 12.982 12.982 0 0 1-.065-1.359v-7.5c0-.578.016-1.064.047-1.459s.1-.799.205-1.213c.106-.414.256-.744.451-.99.196-.246.467-.447.815-.604.347-.156.763-.234 1.248-.234.375 0 .703.041.984.123.281.082.514.211.697.387.184.176.336.367.457.574.122.207.213.467.276.779.062.313.105.616.129.908.023.293.039.647.047 1.061v.668h3zM39.887 67h-2.25v21h3V74.031L46.004 88h2.133V67h-3v12.984L39.887 67zm20.238 2.672V67h-10.5v2.672h3.75V88h3V69.672h3.75zM71.996 88l-4.5-21h-3l-4.5 21h3l1.125-5.25h3.75L68.996 88h3zm19.793 0V69.672h3.75V67h-10.5v2.672h3.75V88h3zm-62.566-2.25c1.054 0 1.783-.316 2.185-.949.403-.633.604-1.567.604-2.801v-9.117c0-1.219-.199-2.129-.598-2.731-.398-.601-1.129-.902-2.191-.902-1.063 0-1.793.301-2.192.902-.398.602-.597 1.512-.597 2.731V82c0 1.234.201 2.168.603 2.801.402.633 1.131.949 2.186.949zm38.273-5.25h-3l1.5-9 1.5 9zm-1.563-25.544H40.067v3.233h25.866v-3.233zm0-29.1H40.067a3.243 3.243 0 0 0-3.234 3.233v19.4a3.243 3.243 0 0 0 3.234 3.233h25.866a3.243 3.243 0 0 0 3.234-3.233v-19.4a3.243 3.243 0 0 0-3.234-3.233zm-4.85 21.016H44.917v-2.425c0-2.699 5.383-4.041 8.083-4.041s8.083 1.342 8.083 4.041v2.425zM53 30.302a3.643 3.643 0 0 1 3.638 3.637A3.643 3.643 0 0 1 53 37.577a3.643 3.643 0 0 1-3.637-3.638A3.642 3.642 0 0 1 53 30.302zm12.933-10.913H40.067v3.233h25.866v-3.233z"/></symbol><symbol viewBox="0 0 106 106" fill-rule="evenodd" clip-rule="evenodd" stroke-linejoin="round" stroke-miterlimit="1.414" id="menu--home"><path d="M106 106H0V0h106v106zM45.875 88.211c-1.055 0-1.959-.16-2.713-.481-.754-.32-1.353-.789-1.799-1.406-.445-.617-.769-1.342-.972-2.174-.204-.832-.305-1.798-.305-2.9v-7.617c0-1.102.101-2.063.305-2.883.203-.82.527-1.533.972-2.139.446-.605 1.045-1.06 1.799-1.365.754-.305 1.658-.457 2.713-.457 2.047 0 3.523.586 4.43 1.758.906 1.172 1.359 2.867 1.359 5.086v7.617c0 1.086-.103 2.045-.31 2.877-.208.832-.534 1.559-.979 2.18-.445.621-1.045 1.093-1.799 1.418-.754.324-1.654.486-2.701.486zM29.211 67h-3v21h3v-9.75h5.25V88h3V67h-3v9h-5.25v-9zm29.226 0h-4.148v21h3V71.43l3 16.57h2.25l3-16.57V88h3V67h-4.148l-2.977 16.078L58.437 67zm21.352 0h-8.25v21h8.25v-2.25h-5.25v-7.5h3.75V76h-3.75v-6.75h5.25V67zM45.875 85.75c1.055 0 1.783-.316 2.186-.949.402-.633.603-1.567.603-2.801v-9.117c0-1.219-.199-2.129-.598-2.731-.398-.601-1.129-.902-2.191-.902-1.063 0-1.793.301-2.191.902-.399.602-.598 1.512-.598 2.731V82c0 1.234.201 2.168.603 2.801.403.633 1.131.949 2.186.949zM29 39.09h7.2v19.2h12v-14.4h9.6v14.4h12v-19.2H77l-24-21.6-24 21.6z"/></symbol><symbol viewBox="0 0 106 106" fill-rule="evenodd" clip-rule="evenodd" stroke-linejoin="round" stroke-miterlimit="1.414" id="menu--work"><path d="M0 0h106v106H0V0zm48.822 88.211c-1.054 0-1.959-.16-2.713-.481-.754-.32-1.353-.789-1.798-1.406-.446-.617-.77-1.342-.973-2.174-.203-.832-.305-1.798-.305-2.9v-7.617c0-1.102.102-2.063.305-2.883.203-.82.527-1.533.973-2.139.445-.605 1.044-1.06 1.798-1.365.754-.305 1.659-.457 2.713-.457 2.047 0 3.524.586 4.43 1.758.906 1.172 1.359 2.867 1.359 5.086v7.617c0 1.086-.103 2.045-.31 2.877-.207.832-.533 1.559-.979 2.18-.445.621-1.045 1.093-1.799 1.418-.753.324-1.654.486-2.701.486zM38.029 88l3.75-21h-3l-1.5 9.75-.761 6-.739-6-1.5-9.75h-3l-1.5 9.75-.738 6-.762-6-1.5-9.75h-3l3.75 21h3l1.5-9.75.75-6 .75 6 1.5 9.75h3zm30.457 0l-3.375-10.5c.86-.313 1.512-.891 1.957-1.734.446-.844.668-1.891.668-3.141 0-2.016-.566-3.457-1.699-4.324S63.221 67 60.986 67h-3.75v21h3v-9.75h2.25L65.51 88h2.976zm4.735-21h-3v21h3v-6.75l1.5-3 3.75 9.75h3.75l-5.262-12.75L81.471 67h-3.75l-4.5 9v-9zM48.822 85.75c1.055 0 1.783-.316 2.186-.949.402-.633.603-1.567.603-2.801v-9.117c0-1.219-.199-2.129-.597-2.731-.399-.601-1.129-.902-2.192-.902-1.062 0-1.793.301-2.191.902-.399.602-.598 1.512-.598 2.731V82c0 1.234.201 2.168.604 2.801.402.633 1.131.949 2.185.949zm12.164-16.5c1.25 0 2.188.264 2.813.791s.937 1.389.937 2.584-.312 2.057-.937 2.584c-.625.527-1.563.791-2.813.791h-.75v-6.75h.75zM56.4 22.75h-6.8a3.388 3.388 0 0 0-3.4 3.4v3.4h-6.8a3.374 3.374 0 0 0-3.383 3.4L36 51.65c0 1.887 1.513 3.4 3.4 3.4h27.2c1.887 0 3.4-1.513 3.4-3.4v-18.7c0-1.887-1.513-3.4-3.4-3.4h-6.8v-3.4c0-1.887-1.513-3.4-3.4-3.4zm0 6.8h-6.8v-3.4h6.8v3.4z"/></symbol></svg>